<?xml version="1.0" encoding="UTF-8"?>
<svg width="25px" height="25px" viewBox="0 0 25 25" version="1.1" xmlns="http://www.w3.org/2000/svg" xmlns:xlink="http://www.w3.org/1999/xlink">
    <!-- Generator: Sketch 40.3 (33839) - http://www.bohemiancoding.com/sketch -->
    <title>fb</title>
    <desc>Created with Sketch.</desc>
    <defs></defs>
    <g id="landing" stroke="none" stroke-width="1" fill="none" fill-rule="evenodd">
        <g id="Bart-Landing" transform="translate(-470.000000, -8507.000000)">
            <g id="Variant-2" transform="translate(0.000000, -4.000000)">
                <g id="Content" transform="translate(-678.000000, -92.000000)">
                    <g id="footer" transform="translate(678.000000, 8565.000000)">
                        <g id="Social" transform="translate(470.000000, 38.000000)">
                            <g id="fb">
                                <path d="M12.505569,24.7474723 C5.70239206,24.7474723 0.167517696,19.2585557 0.167517696,12.5115719 C0.167517696,5.76434758 5.70239206,0.274949808 12.505569,0.274949808 C19.3087459,0.274949808 24.8436203,5.76434758 24.8436203,12.5115719 C24.8436203,19.2585557 19.3087459,24.7474723 12.505569,24.7474723" id="Fill-17" fill="#000000"></path>
                                <path d="M10.5910823,16.1678342 C10.5910823,15.0339137 10.5867155,13.8999931 10.595449,12.7663131 C10.596662,12.5750407 10.5423201,12.5153733 10.3494546,12.5235535 C9.9933207,12.537508 9.63597378,12.52211 9.27935466,12.5300496 C9.13476622,12.5338991 9.08163725,12.4937199 9.08333544,12.3423861 C9.09037078,11.6345579 9.08988558,10.9272109 9.08406323,10.2191421 C9.08260764,10.0834469 9.12409191,10.0382152 9.26261539,10.0413429 C9.62748285,10.0497637 9.9930781,10.031238 10.3569752,10.049042 C10.5680355,10.0593875 10.6117031,9.9852845 10.6073363,9.79088436 C10.5947212,9.25267509 10.5947212,8.71350344 10.606366,8.17481297 C10.6211644,7.51750956 10.7989888,6.90303192 11.1939384,6.36867215 C11.693933,5.69115882 12.4045027,5.38175465 13.2242414,5.34566552 C14.0662993,5.30813282 14.9105404,5.32882392 15.7535686,5.31968134 C15.8712287,5.31847837 15.9061628,5.36010117 15.905435,5.47366164 C15.9020386,6.18894826 15.9010683,6.90471608 15.9061628,7.62072448 C15.9073758,7.74799882 15.8654063,7.78673449 15.739498,7.78456915 C15.333874,7.77855429 14.9284927,7.78168202 14.5231114,7.7824038 C13.9833307,7.78408796 13.6604327,8.05980894 13.6267116,8.58959741 C13.5995406,9.01424622 13.6191911,9.44154155 13.6092445,9.86739333 C13.6058482,10.0189677 13.6968224,10.0083815 13.7979858,10.0083815 C14.4141848,10.0076598 15.0303839,10.0148776 15.6465829,10.0042914 C15.8273184,10.0009231 15.8869976,10.0423053 15.8663767,10.2309312 C15.788988,10.9418871 15.7220309,11.6542866 15.6606536,12.3671673 C15.6468255,12.5278842 15.5728331,12.5586803 15.4272743,12.5560338 C14.9411078,12.5488159 14.4544561,12.5512219 13.968047,12.554109 C13.6184633,12.5560338 13.652427,12.5038248 13.652427,12.8565359 C13.6507288,15.0762582 13.6480602,17.2954993 13.6575215,19.5147404 C13.6584919,19.7495604 13.598085,19.8077842 13.3642205,19.8032129 C12.529198,19.7882961 11.693933,19.7875743 10.8589105,19.8036941 C10.6235904,19.808506 10.5850173,19.7293505 10.5867155,19.5212365 C10.5956916,18.4031951 10.5910823,17.285635 10.5910823,16.1678342" id="Fill-21" fill="#FFFFFF"></path>
                            </g>
                        </g>
                    </g>
                </g>
            </g>
        </g>
    </g>
</svg>