<?xml version="1.0" encoding="UTF-8"?>
<svg width="50px" height="50px" viewBox="0 0 50 50" version="1.1" xmlns="http://www.w3.org/2000/svg" xmlns:xlink="http://www.w3.org/1999/xlink">
    <!-- Generator: Sketch 40.3 (33839) - http://www.bohemiancoding.com/sketch -->
    <title>fb</title>
    <desc>Created with Sketch.</desc>
    <defs></defs>
    <g id="landing" stroke="none" stroke-width="1" fill="none" fill-rule="evenodd">
        <g id="Bart-Landing" transform="translate(-421.000000, -8505.000000)">
            <g id="Variant-2" transform="translate(0.000000, -4.000000)">
                <g id="Content" transform="translate(-678.000000, -92.000000)">
                    <g id="footer" transform="translate(678.000000, 8565.000000)">
                        <g id="Social" transform="translate(421.000000, 25.000000)">
                            <g id="fb" transform="translate(0.000000, 11.000000)">
                                <path d="M25.011138,49.4949446 C11.4047841,49.4949446 0.335035393,38.5171114 0.335035393,25.0231439 C0.335035393,11.5286952 11.4047841,0.549899617 25.011138,0.549899617 C38.6174919,0.549899617 49.6872406,11.5286952 49.6872406,25.0231439 C49.6872406,38.5171114 38.6174919,49.4949446 25.011138,49.4949446" id="Fill-17" fill="#000000"></path>
                                <path d="M21.1821646,32.3356684 C21.1821646,30.0678273 21.173431,27.7999862 21.1908981,25.5326262 C21.1933241,25.1500814 21.0846401,25.0307467 20.6989093,25.0471071 C19.9866414,25.075016 19.2719476,25.0442199 18.5587093,25.0600992 C18.2695324,25.0677982 18.1632745,24.9874397 18.1666709,24.6847722 C18.1807416,23.2691158 18.1797712,21.8544218 18.1681265,20.4382842 C18.1652153,20.1668939 18.2481838,20.0764305 18.5252308,20.0826859 C19.2549657,20.0995275 19.9861562,20.062476 20.7139503,20.0980839 C21.1360709,20.118775 21.2234062,19.970569 21.2146727,19.5817687 C21.1894425,18.5053502 21.1894425,17.4270069 21.2127319,16.3496259 C21.2423289,15.0350191 21.5979776,13.8060638 22.3878768,12.7373443 C23.387866,11.3823176 24.8090053,10.7635093 26.4484829,10.691331 C28.1325985,10.6162656 29.8210809,10.6576478 31.5071373,10.6393627 C31.7424574,10.6369567 31.8123256,10.7202023 31.81087,10.9473233 C31.8040773,12.3778965 31.8021365,13.8094322 31.8123256,15.241449 C31.8147516,15.4959976 31.7308127,15.573469 31.4789959,15.5691383 C30.6677481,15.5571086 29.8569854,15.563364 29.0462227,15.5648076 C27.9666614,15.5681759 27.3208654,16.1196179 27.2534232,17.1791948 C27.1990812,18.0284924 27.2383821,18.8830831 27.2184891,19.7347867 C27.2116963,20.0379354 27.3936449,20.0167631 27.5959716,20.0167631 C28.8283697,20.0153195 30.0607678,20.0297552 31.2931658,20.0085829 C31.6546369,20.0018462 31.7739951,20.0846107 31.7327535,20.4618624 C31.5779759,21.8837742 31.4440618,23.3085732 31.3213072,24.7343346 C31.293651,25.0557685 31.1456662,25.1173606 30.8545486,25.1120675 C29.8822156,25.0976319 28.9089122,25.1024438 27.9360941,25.108218 C27.2369265,25.1120675 27.304854,25.0076496 27.304854,25.7130719 C27.3014576,30.1525165 27.2961204,34.5909987 27.3150431,39.0294809 C27.3169839,39.4991208 27.1961701,39.6155684 26.728441,39.6064258 C25.0583961,39.5765922 23.387866,39.5751486 21.717821,39.6073882 C21.2471808,39.617012 21.1700347,39.458701 21.173431,39.042473 C21.1913833,36.8063903 21.1821646,34.57127 21.1821646,32.3356684" id="Fill-21" fill="#FFFFFF"></path>
                            </g>
                        </g>
                    </g>
                </g>
            </g>
        </g>
    </g>
</svg>