<?xml version="1.0" encoding="UTF-8"?>
<svg width="35px" height="35px" viewBox="0 0 35 35" version="1.1" xmlns="http://www.w3.org/2000/svg" xmlns:xlink="http://www.w3.org/1999/xlink">
    <!-- Generator: Sketch 40.3 (33839) - http://www.bohemiancoding.com/sketch -->
    <title>fb</title>
    <desc>Created with Sketch.</desc>
    <defs></defs>
    <g id="landing" stroke="none" stroke-width="1" fill="none" fill-rule="evenodd">
        <g id="Bart-Landing" transform="translate(-421.000000, -8505.000000)">
            <g id="Variant-2" transform="translate(0.000000, -4.000000)">
                <g id="Content" transform="translate(-678.000000, -92.000000)">
                    <g id="footer" transform="translate(678.000000, 8565.000000)">
                        <g id="Social" transform="translate(421.000000, 25.000000)">
                            <g id="fb" transform="translate(0.000000, 11.000000)">
                                <path d="M17.5077966,34.6464612 C7.98334889,34.6464612 0.234524775,26.961978 0.234524775,17.5162007 C0.234524775,8.07008661 7.98334889,0.384929732 17.5077966,0.384929732 C27.0322443,0.384929732 34.7810684,8.07008661 34.7810684,17.5162007 C34.7810684,26.961978 27.0322443,34.6464612 17.5077966,34.6464612" id="Fill-17" fill="#000000"></path>
                                <path d="M14.8275152,22.6349679 C14.8275152,21.0474791 14.8214017,19.4599903 14.8336287,17.8728384 C14.8353268,17.605057 14.7592481,17.5215227 14.4892365,17.532975 C13.990649,17.5525112 13.4903633,17.530954 12.9910965,17.5420694 C12.7886727,17.5474587 12.7142921,17.4912078 12.7166696,17.2793405 C12.7265191,16.288381 12.7258398,15.2980952 12.7176885,14.3067989 C12.7156507,14.1168257 12.7737287,14.0535013 12.9676615,14.0578801 C13.478476,14.0696692 13.9903093,14.0437332 14.4997652,14.0686588 C14.7952496,14.0831425 14.8563844,13.9793983 14.8502709,13.7072381 C14.8326097,12.9537451 14.8326097,12.1989048 14.8489123,11.4447382 C14.8696302,10.5245134 15.1185843,9.66424468 15.6715138,8.91614101 C16.3715062,7.96762235 17.3663037,7.53445651 18.513938,7.48393172 C19.692819,7.43138594 20.8747566,7.46035349 22.0549961,7.44755388 C22.2197202,7.44586972 22.2686279,7.50414164 22.267609,7.6631263 C22.2628541,8.66452757 22.2614956,9.66660251 22.2686279,10.6690143 C22.2703261,10.8471984 22.2115689,10.9014283 22.0352971,10.8983968 C21.4674236,10.889976 20.8998898,10.8943548 20.3323559,10.8953653 C19.576663,10.8977231 19.1246058,11.2837325 19.0773962,12.0254364 C19.0393569,12.6199447 19.0668675,13.2181582 19.0529424,13.8143507 C19.0481874,14.0265548 19.1755514,14.0117342 19.3171801,14.0117342 C20.1798588,14.0107237 21.0425374,14.0208286 21.9052161,14.006008 C22.1582458,14.0012924 22.2417966,14.0592275 22.2129274,14.3233037 C22.1045831,15.318642 22.0108433,16.3160013 21.924915,17.3140342 C21.9055557,17.5390379 21.8019663,17.5821524 21.598184,17.5784473 C20.9175509,17.5683423 20.2362386,17.5717106 19.5552659,17.5757526 C19.0658486,17.5784473 19.1133978,17.5053547 19.1133978,17.9991503 C19.1110203,21.1067615 19.1072843,24.2136991 19.1205302,27.3206366 C19.1218887,27.6493846 19.037319,27.7308979 18.7099087,27.7244981 C17.5408773,27.7036145 16.3715062,27.702604 15.2024747,27.7251718 C14.8730266,27.7319084 14.8190243,27.6210907 14.8214017,27.3297311 C14.8339683,25.7644732 14.8275152,24.199889 14.8275152,22.6349679" id="Fill-21" fill="#FFFFFF"></path>
                            </g>
                        </g>
                    </g>
                </g>
            </g>
        </g>
    </g>
</svg>