<?xml version="1.0" encoding="UTF-8"?>
<svg width="25px" height="25px" viewBox="0 0 25 25" version="1.1" xmlns="http://www.w3.org/2000/svg" xmlns:xlink="http://www.w3.org/1999/xlink">
    <!-- Generator: Sketch 40.3 (33839) - http://www.bohemiancoding.com/sketch -->
    <title>inst</title>
    <desc>Created with Sketch.</desc>
    <defs></defs>
    <g id="landing" stroke="none" stroke-width="1" fill="none" fill-rule="evenodd">
        <g id="Bart-Landing" transform="translate(-551.000000, -8507.000000)">
            <g id="Variant-2" transform="translate(0.000000, -4.000000)">
                <g id="Content" transform="translate(-678.000000, -92.000000)">
                    <g id="footer" transform="translate(678.000000, 8565.000000)">
                        <g id="Social" transform="translate(470.000000, 38.000000)">
                            <g id="inst" transform="translate(80.761905, 0.000000)">
                                <path d="M12.7082944,24.7474723 C5.90511751,24.7474723 0.370243142,19.2585557 0.370243142,12.5115719 C0.370243142,5.76434758 5.90511751,0.274949808 12.7082944,0.274949808 C19.511714,0.274949808 25.0465883,5.76434758 25.0465883,12.5115719 C25.0465883,19.2585557 19.511714,24.7474723 12.7082944,24.7474723" id="Fill-29" fill="#000000"></path>
                                <path d="M12.7082944,6.32298331 C14.7405383,6.32298331 14.9811955,6.33068232 15.7839524,6.36725264 C16.5258173,6.40045465 16.9287726,6.52387948 17.197086,6.6270944 C17.5524922,6.76375192 17.8060071,6.92783718 18.0721372,7.19152845 C18.3387524,7.4557009 18.5037191,7.70736246 18.6415148,8.059833 C18.745832,8.32544902 18.8697996,8.72507602 18.9037633,9.46129434 C18.940153,10.2574206 18.9481587,10.4958495 18.9481587,12.5115479 C18.9481587,14.5270057 18.940153,14.7656752 18.9037633,15.5610797 C18.8697996,16.297298 18.745832,16.696925 18.6415148,16.9632628 C18.5037191,17.3152521 18.3387524,17.5664325 18.0721372,17.8308455 C17.8060071,18.0952586 17.5524922,18.2583815 17.197086,18.3957608 C16.9287726,18.4987351 16.5258173,18.6216788 15.7839524,18.6556025 C14.9814381,18.6916917 14.7407809,18.6991501 12.7082944,18.6991501 C10.6760506,18.6991501 10.4353934,18.6916917 9.63287904,18.6556025 C8.89101423,18.6216788 8.48781628,18.4987351 8.21950284,18.3957608 C7.86433931,18.2583815 7.61058175,18.0952586 7.3444517,17.8308455 C7.07807905,17.5664325 6.91311238,17.3152521 6.77507409,16.9632628 C6.67075693,16.696925 6.54703193,16.297298 6.5130682,15.5610797 C6.4766785,14.7656752 6.46867276,14.5270057 6.46867276,12.5115479 C6.46867276,10.4958495 6.4766785,10.2574206 6.5130682,9.46129434 C6.54703193,8.72507602 6.67075693,8.32544902 6.77507409,8.059833 C6.91311238,7.70736246 7.07807905,7.4557009 7.3444517,7.19152845 C7.61058175,6.92783718 7.86433931,6.76375192 8.21950284,6.6270944 C8.48781628,6.52387948 8.89101423,6.40045465 9.63287904,6.36725264 C10.4353934,6.33068232 10.6760506,6.32298331 12.7082944,6.32298331 M12.7082944,4.96338536 C10.6411165,4.96338536 10.3820218,4.97180615 9.57028875,5.00837648 C8.76025388,5.0449468 8.20688774,5.17294292 7.72290465,5.35916285 C7.22242488,5.55236001 6.79787831,5.81027702 6.37478732,6.22987334 C5.95145373,6.64946967 5.69138863,7.07026896 5.496825,7.56709603 C5.30881152,8.04684091 5.18023455,8.59563633 5.14311705,9.39898044 C5.10599955,10.2044899 5.09726602,10.4612039 5.09726602,12.5115479 C5.09726602,14.5611701 5.10599955,14.8186059 5.14311705,15.623153 C5.18023455,16.4267377 5.30881152,16.9752925 5.496825,17.4555186 C5.69138863,17.952105 5.95145373,18.3731449 6.37478732,18.7925007 C6.79787831,19.212097 7.22242488,19.4704952 7.72290465,19.6629705 C8.20688774,19.8499123 8.76025388,19.9774272 9.57028875,20.0137569 C10.3820218,20.051049 10.6411165,20.0597104 12.7082944,20.0597104 C14.7754724,20.0597104 15.0345671,20.051049 15.8465427,20.0137569 C16.656335,19.9774272 17.2099437,19.8499123 17.6939268,19.6629705 C18.1944066,19.4704952 18.6187106,19.212097 19.0418016,18.7925007 C19.4651352,18.3731449 19.7254429,17.952105 19.9200065,17.4555186 C20.10802,16.9752925 20.2365969,16.4267377 20.2737144,15.623153 C20.3108319,14.8186059 20.3193229,14.5611701 20.3193229,12.5115479 C20.3193229,10.4612039 20.3108319,10.2044899 20.2737144,9.39898044 C20.2365969,8.59563633 20.10802,8.04684091 19.9200065,7.56709603 C19.7254429,7.07026896 19.4651352,6.64946967 19.0418016,6.22987334 C18.6187106,5.81027702 18.1944066,5.55236001 17.6939268,5.35916285 C17.2099437,5.17294292 16.656335,5.0449468 15.8465427,5.00837648 C15.0345671,4.97180615 14.7754724,4.96338536 12.7082944,4.96338536" id="Fill-33" fill="#FFFFFF"></path>
                                <path d="M12.7082944,8.63494942 C10.5498996,8.63494942 8.80003996,10.3708367 8.80003996,12.5111629 C8.80003996,14.6522109 10.5498996,16.387617 12.7082944,16.387617 C14.8666892,16.387617 16.6165489,14.6522109 16.6165489,12.5111629 C16.6165489,10.3708367 14.8666892,8.63494942 12.7082944,8.63494942 M12.7082944,15.0270567 C11.3072907,15.0270567 10.1714467,13.9010758 10.1714467,12.5111629 C10.1714467,11.1217313 11.3072907,9.99502856 12.7082944,9.99502856 C14.1095407,9.99502856 15.2453848,11.1217313 15.2453848,12.5111629 C15.2453848,13.9010758 14.1095407,15.0270567 12.7082944,15.0270567" id="Fill-35" fill="#FFFFFF"></path>
                                <path d="M17.6846353,8.48197962 C17.6846353,8.98217501 17.275615,9.38805746 16.7710111,9.38805746 C16.2666498,9.38805746 15.8578721,8.98217501 15.8578721,8.48197962 C15.8578721,7.98178423 16.2666498,7.57614237 16.7710111,7.57614237 C17.275615,7.57614237 17.6846353,7.98178423 17.6846353,8.48197962" id="Fill-37" fill="#FFFFFF"></path>
                            </g>
                        </g>
                    </g>
                </g>
            </g>
        </g>
    </g>
</svg>