<?xml version="1.0" encoding="UTF-8"?>
<svg width="34px" height="34px" viewBox="0 0 34 34" version="1.1" xmlns="http://www.w3.org/2000/svg" xmlns:xlink="http://www.w3.org/1999/xlink">
    <!-- Generator: Sketch 40.3 (33839) - http://www.bohemiancoding.com/sketch -->
    <title>inst</title>
    <desc>Created with Sketch.</desc>
    <defs></defs>
    <g id="landing" stroke="none" stroke-width="1" fill="none" fill-rule="evenodd">
        <g id="Bart-Landing" transform="translate(-551.000000, -8507.000000)">
            <g id="Variant-2" transform="translate(0.000000, -4.000000)">
                <g id="Content" transform="translate(-678.000000, -92.000000)">
                    <g id="footer" transform="translate(678.000000, 8565.000000)">
                        <g id="Social" transform="translate(421.000000, 25.000000)">
                            <g id="inst" transform="translate(129.761905, 13.000000)">
                                <path d="M17.1073194,33.313905 C7.94919664,33.313905 0.49840423,25.9249789 0.49840423,16.8425007 C0.49840423,7.75969867 7.94919664,0.370124742 17.1073194,0.370124742 C26.2657688,0.370124742 33.7165612,7.75969867 33.7165612,16.8425007 C33.7165612,25.9249789 26.2657688,33.313905 17.1073194,33.313905" id="Fill-29" fill="#000000"></path>
                                <path d="M17.1073194,8.5117083 C19.8430323,8.5117083 20.166994,8.52207236 21.2476283,8.57130163 C22.2462925,8.61599664 22.7887324,8.78214546 23.1499235,8.92108862 C23.6283549,9.10505066 23.969625,9.32593467 24.327877,9.68090368 C24.6867821,10.0365204 24.9088526,10.3752956 25.0943468,10.8497752 C25.2347738,11.2073352 25.4016532,11.7452946 25.4473736,12.7363578 C25.4963598,13.8080662 25.5071367,14.1290282 25.5071367,16.8424683 C25.5071367,19.5555846 25.4963598,19.8768704 25.4473736,20.9476072 C25.4016532,21.9386703 25.2347738,22.4766298 25.0943468,22.8351614 C24.9088526,23.3089932 24.6867821,23.6471207 24.327877,24.0030613 C23.969625,24.359002 23.6283549,24.5785905 23.1499235,24.7635241 C22.7887324,24.9021434 22.2462925,25.0676445 21.2476283,25.1133111 C20.1673205,25.1618926 19.8433588,25.1719328 17.1073194,25.1719328 C14.3716066,25.1719328 14.0476449,25.1618926 12.9673372,25.1133111 C11.968673,25.0676445 11.4259065,24.9021434 11.0647154,24.7635241 C10.5866106,24.5785905 10.2450139,24.359002 9.8867619,24.0030613 C9.52818333,23.6471207 9.30611282,23.3089932 9.12029205,22.8351614 C8.9798651,22.4766298 8.81331221,21.9386703 8.76759181,20.9476072 C8.71860567,19.8768704 8.70782872,19.5555846 8.70782872,16.8424683 C8.70782872,14.1290282 8.71860567,13.8080662 8.76759181,12.7363578 C8.81331221,11.7452946 8.9798651,11.2073352 9.12029205,10.8497752 C9.30611282,10.3752956 9.52818333,10.0365204 9.8867619,9.68090368 C10.2450139,9.32593467 10.5866106,9.10505066 11.0647154,8.92108862 C11.4259065,8.78214546 11.968673,8.61599664 12.9673372,8.57130163 C14.0476449,8.52207236 14.3716066,8.5117083 17.1073194,8.5117083 M17.1073194,6.68148029 C14.3245799,6.68148029 13.9757986,6.69281598 12.883081,6.74204526 C11.7926495,6.79127454 11.0477335,6.96357701 10.3962178,7.21425769 C9.72249504,7.47433079 9.15099003,7.82152676 8.58144447,8.38636796 C8.01157233,8.95120916 7.66148469,9.51766975 7.39957211,10.1864754 C7.14647704,10.8322858 6.97339267,11.5710489 6.9234268,12.6524737 C6.87346093,13.7368133 6.86170426,14.0823899 6.86170426,16.8424683 C6.86170426,19.6015751 6.87346093,19.9481233 6.9234268,21.0311675 C6.97339267,22.1129161 7.14647704,22.8513553 7.39957211,23.4978134 C7.66148469,24.1662952 8.01157233,24.7330797 8.58144447,25.297597 C9.15099003,25.8624382 9.72249504,26.210282 10.3962178,26.4693834 C11.0477335,26.7210357 11.7926495,26.8926905 12.883081,26.9415959 C13.9757986,26.9917968 14.3245799,27.0034563 17.1073194,27.0034563 C19.890059,27.0034563 20.2388403,26.9917968 21.3318845,26.9415959 C22.4219894,26.8926905 23.167232,26.7210357 23.8187477,26.4693834 C24.4924704,26.210282 25.0636489,25.8624382 25.6331944,25.297597 C26.2030666,24.7330797 26.5534808,24.1662952 26.8153933,23.4978134 C27.0684884,22.8513553 27.2415728,22.1129161 27.2915387,21.0311675 C27.3415045,19.9481233 27.3529346,19.6015751 27.3529346,16.8424683 C27.3529346,14.0823899 27.3415045,13.7368133 27.2915387,12.6524737 C27.2415728,11.5710489 27.0684884,10.8322858 26.8153933,10.1864754 C26.5534808,9.51766975 26.2030666,8.95120916 25.6331944,8.38636796 C25.0636489,7.82152676 24.4924704,7.47433079 23.8187477,7.21425769 C23.167232,6.96357701 22.4219894,6.79127454 21.3318845,6.74204526 C20.2388403,6.69281598 19.890059,6.68148029 17.1073194,6.68148029" id="Fill-33" fill="#FFFFFF"></path>
                                <path d="M17.1073194,11.6239704 C14.201788,11.6239704 11.8462076,13.9607418 11.8462076,16.8419501 C11.8462076,19.7241301 14.201788,22.0602537 17.1073194,22.0602537 C20.0128509,22.0602537 22.3684312,19.7241301 22.3684312,16.8419501 C22.3684312,13.9607418 20.0128509,11.6239704 17.1073194,11.6239704 M17.1073194,20.2287302 C15.2213529,20.2287302 13.6923321,18.7129866 13.6923321,16.8419501 C13.6923321,14.9715614 15.2213529,13.4548461 17.1073194,13.4548461 C18.9936125,13.4548461 20.5226334,14.9715614 20.5226334,16.8419501 C20.5226334,18.7129866 18.9936125,20.2287302 17.1073194,20.2287302" id="Fill-35" fill="#FFFFFF"></path>
                                <path d="M23.8062399,11.4180495 C23.8062399,12.0913894 23.2556356,12.6377697 22.5763611,12.6377697 C21.8974131,12.6377697 21.3471355,12.0913894 21.3471355,11.4180495 C21.3471355,10.7447095 21.8974131,10.1986532 22.5763611,10.1986532 C23.2556356,10.1986532 23.8062399,10.7447095 23.8062399,11.4180495" id="Fill-37" fill="#FFFFFF"></path>
                            </g>
                        </g>
                    </g>
                </g>
            </g>
        </g>
    </g>
</svg>