<?xml version="1.0" encoding="UTF-8"?>
<svg width="48px" height="48px" viewBox="0 0 48 48" version="1.1" xmlns="http://www.w3.org/2000/svg" xmlns:xlink="http://www.w3.org/1999/xlink">
    <!-- Generator: Sketch 40.3 (33839) - http://www.bohemiancoding.com/sketch -->
    <title>inst</title>
    <desc>Created with Sketch.</desc>
    <defs></defs>
    <g id="landing" stroke="none" stroke-width="1" fill="none" fill-rule="evenodd">
        <g id="Bart-Landing" transform="translate(-551.000000, -8507.000000)">
            <g id="Variant-2" transform="translate(0.000000, -4.000000)">
                <g id="Content" transform="translate(-678.000000, -92.000000)">
                    <g id="footer" transform="translate(678.000000, 8565.000000)">
                        <g id="Social" transform="translate(421.000000, 25.000000)">
                            <g id="inst" transform="translate(129.761905, 13.000000)">
                                <path d="M24.4390278,47.5912929 C11.3559952,47.5912929 0.712006042,37.0356841 0.712006042,24.0607153 C0.712006042,11.0852838 11.3559952,0.528749632 24.4390278,0.528749632 C37.5225269,0.528749632 48.166516,11.0852838 48.166516,24.0607153 C48.166516,37.0356841 37.5225269,47.5912929 24.4390278,47.5912929" id="Fill-29" fill="#000000"></path>
                                <path d="M24.4390278,12.1595833 C28.347189,12.1595833 28.8099914,12.1743891 30.3537547,12.2447166 C31.7804178,12.3085666 32.5553319,12.5459221 33.0713193,12.7444123 C33.7547926,13.0072152 34.2423214,13.3227638 34.75411,13.8298624 C35.2668316,14.3378864 35.5840752,14.8218509 35.8490669,15.4996788 C36.0496768,16.0104789 36.2880761,16.7789923 36.3533909,18.1947968 C36.4233711,19.7258089 36.4387668,20.184326 36.4387668,24.060669 C36.4387668,27.9365494 36.4233711,28.3955291 36.3533909,29.9251532 C36.2880761,31.3409576 36.0496768,32.1094711 35.8490669,32.6216592 C35.5840752,33.2985618 35.2668316,33.781601 34.75411,34.2900876 C34.2423214,34.7985742 33.7547926,35.1122721 33.0713193,35.376463 C32.5553319,35.5744906 31.7804178,35.8109207 30.3537547,35.8761587 C28.8104579,35.9455609 28.3476555,35.959904 24.4390278,35.959904 C20.5308666,35.959904 20.0680642,35.9455609 18.5247674,35.8761587 C17.0981043,35.8109207 16.3227236,35.5744906 15.8067362,35.376463 C15.1237294,35.1122721 14.6357341,34.7985742 14.1239456,34.2900876 C13.6116905,33.781601 13.2944469,33.2985618 13.0289886,32.6216592 C12.8283787,32.1094711 12.590446,31.3409576 12.5251312,29.9251532 C12.455151,28.3955291 12.4397553,27.9365494 12.4397553,24.060669 C12.4397553,20.184326 12.455151,19.7258089 12.5251312,18.1947968 C12.590446,16.7789923 12.8283787,16.0104789 13.0289886,15.4996788 C13.2944469,14.8218509 13.6116905,14.3378864 14.1239456,13.8298624 C14.6357341,13.3227638 15.1237294,13.0072152 15.8067362,12.7444123 C16.3227236,12.5459221 17.0981043,12.3085666 18.5247674,12.2447166 C20.0680642,12.1743891 20.5308666,12.1595833 24.4390278,12.1595833 M24.4390278,9.54497184 C20.4636856,9.54497184 19.9654265,9.56116568 18.4044014,9.63149322 C16.8466421,9.70182076 15.7824764,9.94796716 14.8517397,10.3060824 C13.8892786,10.6776154 13.0728429,11.1736097 12.2592064,11.9805257 C11.4451033,12.7874417 10.9449781,13.5966711 10.5708173,14.5521077 C10.2092529,15.4746941 9.96198952,16.5300699 9.89060971,18.0749624 C9.81922991,19.624019 9.80243466,20.1176999 9.80243466,24.060669 C9.80243466,28.0022501 9.81922991,28.497319 9.89060971,30.0445249 C9.96198952,31.5898801 10.2092529,32.6447933 10.5708173,33.5683049 C10.9449781,34.5232789 11.4451033,35.332971 12.2592064,36.1394243 C13.0728429,36.9463403 13.8892786,37.4432599 14.8517397,37.8134049 C15.7824764,38.1729082 16.8466421,38.4181292 18.4044014,38.4879941 C19.9654265,38.5597097 20.4636856,38.5763662 24.4390278,38.5763662 C28.4143699,38.5763662 28.912629,38.5597097 30.4741206,38.4879941 C32.0314135,38.4181292 33.0960457,38.1729082 34.0267824,37.8134049 C34.9892435,37.4432599 35.8052127,36.9463403 36.6188492,36.1394243 C37.4329522,35.332971 37.933544,34.5232789 38.3077048,33.5683049 C38.6692692,32.6447933 38.9165326,31.5898801 38.9879124,30.0445249 C39.0592922,28.497319 39.0756209,28.0022501 39.0756209,24.060669 C39.0756209,20.1176999 39.0592922,19.624019 38.9879124,18.0749624 C38.9165326,16.5300699 38.6692692,15.4746941 38.3077048,14.5521077 C37.933544,13.5966711 37.4329522,12.7874417 36.6188492,11.9805257 C35.8052127,11.1736097 34.9892435,10.6776154 34.0267824,10.3060824 C33.0960457,9.94796716 32.0314135,9.70182076 30.4741206,9.63149322 C28.912629,9.56116568 28.4143699,9.54497184 24.4390278,9.54497184" id="Fill-33" fill="#FFFFFF"></path>
                                <path d="M24.4390278,16.605672 C20.2882686,16.605672 16.9231538,19.9439168 16.9231538,24.0599287 C16.9231538,28.1773287 20.2882686,31.5146482 24.4390278,31.5146482 C28.589787,31.5146482 31.9549018,28.1773287 31.9549018,24.0599287 C31.9549018,19.9439168 28.589787,16.605672 24.4390278,16.605672 M24.4390278,28.898186 C21.7447899,28.898186 19.5604744,26.732838 19.5604744,24.0599287 C19.5604744,21.3879448 21.7447899,19.2212088 24.4390278,19.2212088 C27.1337322,19.2212088 29.3180477,21.3879448 29.3180477,24.0599287 C29.3180477,26.732838 27.1337322,28.898186 24.4390278,28.898186" id="Fill-35" fill="#FFFFFF"></path>
                                <path d="M34.0089141,16.3114993 C34.0089141,17.2734135 33.2223366,18.0539567 32.2519444,18.0539567 C31.2820188,18.0539567 30.4959078,17.2734135 30.4959078,16.3114993 C30.4959078,15.3495851 31.2820188,14.5695046 32.2519444,14.5695046 C33.2223366,14.5695046 34.0089141,15.3495851 34.0089141,16.3114993" id="Fill-37" fill="#FFFFFF"></path>
                            </g>
                        </g>
                    </g>
                </g>
            </g>
        </g>
    </g>
</svg>