<?xml version="1.0" encoding="UTF-8"?>
<svg width="26px" height="25px" viewBox="0 0 26 25" version="1.1" xmlns="http://www.w3.org/2000/svg" xmlns:xlink="http://www.w3.org/1999/xlink">
    <!-- Generator: Sketch 40.3 (33839) - http://www.bohemiancoding.com/sketch -->
    <title>vk</title>
    <desc>Created with Sketch.</desc>
    <defs></defs>
    <g id="landing" stroke="none" stroke-width="1" fill="none" fill-rule="evenodd">
        <g id="Bart-Landing" transform="translate(-510.000000, -8507.000000)">
            <g id="Variant-2" transform="translate(0.000000, -4.000000)">
                <g id="Content" transform="translate(-678.000000, -92.000000)">
                    <g id="footer" transform="translate(678.000000, 8565.000000)">
                        <g id="Social" transform="translate(470.000000, 38.000000)">
                            <g id="vk" transform="translate(40.380952, 0.000000)">
                                <path d="M12.5295793,24.7474723 C5.7264024,24.7474723 0.191528033,19.2585557 0.191528033,12.5115719 C0.191528033,5.76434758 5.7264024,0.274949808 12.5295793,0.274949808 C19.3327563,0.274949808 24.8676306,5.76434758 24.8676306,12.5115719 C24.8676306,19.2585557 19.3327563,24.7474723 12.5295793,24.7474723" id="Fill-23" fill="#000000"></path>
                                <path d="M11.890382,17.8682098 L12.8976491,17.8682098 C12.8976491,17.8682098 13.1994411,17.9803267 13.3537334,17.8152791 C13.4956533,17.6639453 13.4912865,17.3802847 13.4912865,17.3802847 C13.4912865,17.3802847 13.4718787,16.0497987 14.0939,15.8544362 C14.7076731,15.6609984 15.4956315,17.1396905 16.330654,17.7082147 C16.9621367,18.1381565 17.4422382,18.1088041 17.4422382,18.1088041 L19.6840868,18.0775268 C19.6840868,18.0775268 20.8682078,18.0048673 20.3065933,17.0817073 C20.2607423,17.0066419 19.9795712,16.3989009 18.6234481,15.1504575 C17.2037644,13.8435497 17.3942038,14.055032 19.1037922,11.7953711 C20.1452656,10.4186909 20.5615639,9.5787765 20.4315313,9.21884754 C20.3073211,8.87576018 19.5416817,8.96622361 19.5416817,8.96622361 L17.0203602,8.96622361 C17.0203602,8.96622361 16.8340449,9.01530483 16.6957641,9.09758805 C16.5606369,9.17770593 16.4740294,9.36464764 16.4740294,9.36464764 C16.4740294,9.36464764 16.0756835,10.4153226 15.5451215,11.3088896 C14.4257742,13.1944265 13.9779382,13.2940325 13.7950192,13.1771037 C13.3692597,12.9040292 13.4755176,12.0807158 13.4755176,11.4963124 C13.4755176,9.66899933 13.7552332,8.90727802 12.9313702,8.70999076 C12.6582048,8.64430854 12.4568484,8.60100158 11.7576809,8.59402435 C10.8605533,8.58488177 10.101464,8.59691148 9.6715803,8.80550667 C9.38555721,8.94457013 9.16479299,9.2539743 9.29919231,9.27201887 C9.46561456,9.29367235 9.84188413,9.37234666 10.0412997,9.64205278 C10.2989388,9.98971143 10.2899627,10.7701991 10.2899627,10.7701991 C10.2899627,10.7701991 10.4381901,12.9211114 9.9442605,13.1884116 C9.60535104,13.3717444 9.14029059,12.9976204 8.14224224,11.2869955 C7.63084556,10.4107513 7.24487207,9.44235957 7.24487207,9.44235957 C7.24487207,9.44235957 7.17039447,9.26143272 7.03745074,9.16399206 C6.87636564,9.04706327 6.65123466,9.20681783 6.65123466,9.20681783 L4.26188653,9.22221586 C4.26188653,9.22221586 3.90332662,9.23208022 3.77159588,9.3870229 C3.65442103,9.5246428 3.76213456,9.80926576 3.76213456,9.80926576 C3.76213456,9.80926576 5.63256547,14.1495855 7.75093159,16.3368276 C9.69292893,18.3421804 11.8981451,18.2105754 11.8981451,18.2105754" id="Fill-27" fill="#FFFFFF"></path>
                            </g>
                        </g>
                    </g>
                </g>
            </g>
        </g>
    </g>
</svg>