<?xml version="1.0" encoding="UTF-8"?>
<svg width="50px" height="50px" viewBox="0 0 50 50" version="1.1" xmlns="http://www.w3.org/2000/svg" xmlns:xlink="http://www.w3.org/1999/xlink">
    <!-- Generator: Sketch 40.3 (33839) - http://www.bohemiancoding.com/sketch -->
    <title>vk</title>
    <desc>Created with Sketch.</desc>
    <defs></defs>
    <g id="landing" stroke="none" stroke-width="1" fill="none" fill-rule="evenodd">
        <g id="Bart-Landing" transform="translate(-481.000000, -8494.000000)">
            <g id="Variant-2" transform="translate(0.000000, -4.000000)">
                <g id="Content" transform="translate(-678.000000, -92.000000)">
                    <g id="footer" transform="translate(678.000000, 8565.000000)">
                        <g id="Social" transform="translate(421.000000, 25.000000)">
                            <g id="vk" transform="translate(60.000000, 0.000000)">
                                <path d="M25.0591587,49.4949446 C11.4528048,49.4949446 0.383056066,38.5171114 0.383056066,25.0231439 C0.383056066,11.5286952 11.4528048,0.549899617 25.0591587,0.549899617 C38.6655125,0.549899617 49.7352613,11.5286952 49.7352613,25.0231439 C49.7352613,38.5171114 38.6655125,49.4949446 25.0591587,49.4949446" id="Fill-23" fill="#000000"></path>
                                <path d="M23.780764,35.7364197 L25.7952982,35.7364197 C25.7952982,35.7364197 26.3988821,35.9606535 26.7074668,35.6305582 C26.9913065,35.3278907 26.982573,34.7605695 26.982573,34.7605695 C26.982573,34.7605695 26.9437573,32.0995974 28.1878001,31.7088724 C29.4153462,31.3219969 30.9912631,34.279381 32.661308,35.4164293 C33.9242734,36.2763131 34.8844765,36.2176081 34.8844765,36.2176081 L39.3681735,36.1550536 C39.3681735,36.1550536 41.7364156,36.0097347 40.6131867,34.1634146 C40.5214846,34.0132838 39.9591423,32.7978018 37.2468962,30.300915 C34.4075287,27.6870994 34.7884076,28.110064 38.2075845,23.5907421 C40.2905313,20.8373819 41.1231278,19.157553 40.8630627,18.4376951 C40.6146423,17.7515204 39.0833634,17.9324472 39.0833634,17.9324472 L34.0407205,17.9324472 C34.0407205,17.9324472 33.6680899,18.0306097 33.3915281,18.1951761 C33.1212739,18.3554119 32.9480589,18.7292953 32.9480589,18.7292953 C32.9480589,18.7292953 32.1513669,20.8306452 31.0902431,22.6177791 C28.8515483,26.3888529 27.9558763,26.588065 27.5900385,26.3542074 C26.7385194,25.8080585 26.9510353,24.1614316 26.9510353,22.9926249 C26.9510353,19.3379987 27.5104663,17.814556 25.8627404,17.4199815 C25.3164096,17.2886171 24.9136969,17.2020032 23.5153618,17.1880487 C21.7211066,17.1697635 20.2029281,17.193823 19.3431606,17.6110133 C18.7711144,17.8891403 18.329586,18.5079486 18.5983846,18.5440377 C18.9312291,18.5873447 19.6837683,18.7446933 20.0825994,19.2841056 C20.5978777,19.9794229 20.5799254,21.5403982 20.5799254,21.5403982 C20.5799254,21.5403982 20.8763802,25.8422229 19.888521,26.3768232 C19.2107021,26.7434888 18.2805812,25.9952408 16.2844845,22.573991 C15.2616911,20.8215026 14.4897441,18.8847191 14.4897441,18.8847191 C14.4897441,18.8847191 14.3407889,18.5228654 14.0749015,18.3279841 C13.7527313,18.0941265 13.3024693,18.4136357 13.3024693,18.4136357 L8.52377306,18.4444317 C8.52377306,18.4444317 7.80665324,18.4641604 7.54319176,18.7740458 C7.30884205,19.0492856 7.52426912,19.6185315 7.52426912,19.6185315 C7.52426912,19.6185315 11.2651309,28.2991711 15.5018632,32.6736552 C19.3858579,36.6843609 23.7962903,36.4211508 23.7962903,36.4211508" id="Fill-27" fill="#FFFFFF"></path>
                            </g>
                        </g>
                    </g>
                </g>
            </g>
        </g>
    </g>
</svg>