<?xml version="1.0" encoding="UTF-8"?>
<svg width="35px" height="35px" viewBox="0 0 35 35" version="1.1" xmlns="http://www.w3.org/2000/svg" xmlns:xlink="http://www.w3.org/1999/xlink">
    <!-- Generator: Sketch 40.3 (33839) - http://www.bohemiancoding.com/sketch -->
    <title>vk</title>
    <desc>Created with Sketch.</desc>
    <defs></defs>
    <g id="landing" stroke="none" stroke-width="1" fill="none" fill-rule="evenodd">
        <g id="Bart-Landing" transform="translate(-481.000000, -8494.000000)">
            <g id="Variant-2" transform="translate(0.000000, -4.000000)">
                <g id="Content" transform="translate(-678.000000, -92.000000)">
                    <g id="footer" transform="translate(678.000000, 8565.000000)">
                        <g id="Social" transform="translate(421.000000, 25.000000)">
                            <g id="vk" transform="translate(60.000000, 0.000000)">
                                <path d="M17.5414111,34.6464612 C8.01696336,34.6464612 0.268139246,26.961978 0.268139246,17.5162007 C0.268139246,8.07008661 8.01696336,0.384929732 17.5414111,0.384929732 C27.0658588,0.384929732 34.8146829,8.07008661 34.8146829,17.5162007 C34.8146829,26.961978 27.0658588,34.6464612 17.5414111,34.6464612" id="Fill-23" fill="#000000"></path>
                                <path d="M16.6465348,25.0154938 L18.0567087,25.0154938 C18.0567087,25.0154938 18.4792175,25.1724574 18.6952268,24.9413907 C18.8939146,24.7295235 18.8878011,24.3323986 18.8878011,24.3323986 C18.8878011,24.3323986 18.8606301,22.4697182 19.7314601,22.1962107 C20.5907423,21.9253978 21.6938841,23.9955667 22.8629156,24.7915005 C23.7469914,25.3934192 24.4191335,25.3523257 24.4191335,25.3523257 L27.5577215,25.3085375 C27.5577215,25.3085375 29.2154909,25.2068143 28.4292307,23.9143902 C28.3650392,23.8092987 27.9713996,22.9584613 26.0728274,21.2106405 C24.0852701,19.3809696 24.3518854,19.6770448 26.7453091,16.5135195 C28.2033719,14.5861673 28.7861894,13.4102871 28.6041439,12.9063866 C28.4302496,12.4260643 27.3583544,12.5527131 27.3583544,12.5527131 L23.8285043,12.5527131 C23.8285043,12.5527131 23.5676629,12.6214268 23.3740697,12.7366233 C23.1848917,12.8487883 23.0636412,13.1105067 23.0636412,13.1105067 C23.0636412,13.1105067 22.5059568,14.5814517 21.7631702,15.8324454 C20.1960838,18.4721971 19.5691134,18.6116455 19.3130269,18.4479452 C18.7169636,18.0656409 18.8657247,16.9130021 18.8657247,16.0948374 C18.8657247,13.5365991 19.2573264,12.4701892 18.1039183,12.1939871 C17.7214867,12.102032 17.4395878,12.0414022 16.4607532,12.0316341 C15.2047746,12.0188345 14.1420496,12.0356761 13.5402124,12.3277093 C13.1397801,12.5223982 12.8307102,12.955564 13.0188692,12.9808264 C13.2518604,13.0111413 13.7786378,13.1212853 14.0578196,13.4988739 C14.4185144,13.985596 14.4059478,15.0782787 14.4059478,15.0782787 C14.4059478,15.0782787 14.6134662,18.089556 13.9219647,18.4637763 C13.4474915,18.7204422 12.7964068,18.1966686 11.3991391,15.8017937 C10.6831838,14.5750518 10.1428209,13.2193034 10.1428209,13.2193034 C10.1428209,13.2193034 10.0385523,12.9660058 9.85243104,12.8295889 C9.6269119,12.6658886 9.31172852,12.889545 9.31172852,12.889545 L5.96664114,12.9111022 C5.96664114,12.9111022 5.46465727,12.9249123 5.28023423,13.1418321 C5.11618944,13.3344999 5.26698838,13.7329721 5.26698838,13.7329721 C5.26698838,13.7329721 7.88559166,19.8094197 10.8513042,22.8715586 C13.5701005,25.6790526 16.6574032,25.4948056 16.6574032,25.4948056" id="Fill-27" fill="#FFFFFF"></path>
                            </g>
                        </g>
                    </g>
                </g>
            </g>
        </g>
    </g>
</svg>